<?xml version="1.0" encoding="utf-8"?>
<!-- Generator: Adobe Illustrator 19.0.0, SVG Export Plug-In . SVG Version: 6.00 Build 0)  -->
<svg version="1.1" id="Layer_1" xmlns="http://www.w3.org/2000/svg" xmlns:xlink="http://www.w3.org/1999/xlink" x="0px" y="0px"
	 viewBox="0 112.9 593.8 597" style="enable-background:new 0 112.9 593.8 597;" xml:space="preserve">
<style type="text/css">
	.st0{fill:#2E6450;}
	.st1{fill:#FFFFFF;}
	.st2{fill:#F5F3EE;}
	.st3{fill:#1E1917;}
</style>
<path class="st0" d="M540.3,243c33.6,48.3,53.5,107,53.5,170c0,163.7-133.2,296.9-296.9,296.9S0,576.6,0,413
	C0,350,19.9,291.3,53.5,243c-22.6,40.4-35.7,87.1-35.7,136.4c0,153.7,125.4,279.1,279.1,279.1c153.7,0,279.1-125.4,279.1-279.1
	C576,330.1,562.9,283.4,540.3,243"/>
<path class="st0" d="M298.5,112.9c147.4,0,267,120.1,267,267c0,61.9-21.5,119.6-57.2,164.7c24.7-38.8,39.3-85,39.3-134.3
	c0-138-112.8-250.7-250.7-250.7S46.2,272.4,46.2,410.3c0,40.4,9.4,78.7,26.8,112.8c-26.2-41.4-42-90.8-42-143.2
	C30.9,233,151.1,112.9,298.5,112.9"/>
<path class="st1" d="M67.1,574.5l2.1,2.6c-1,1-1.6,2.1-2.1,2.6c-0.5,1-0.5,2.1,0,3.1c0.5,1,1,2.6,1.6,3.7c1,1,1.6,1.6,2.6,2.6
	c1,0.5,1.6,1,2.6,1c1,0,1.6-0.5,2.1-0.5c0.5-0.5,1-1,1-2.1c0-0.5,0-1.6,0-2.6c0-0.5-1-2.1-1.6-4.2c-1-2.1-1.6-3.7-1.6-4.7
	c0-1.6,0-2.6,0-3.7c0.5-1,1-2.1,2.1-2.6c1-1,2.1-1,3.7-1.6c1.6,0,2.6,0,4.2,1c1.6,0.5,2.6,2.1,3.7,3.1c1,1.6,2.1,3.1,2.6,4.7
	c0.5,1.6,0.5,3.1,0,4.2c-0.5,1.6-1,2.6-2.6,3.7l-2.1-2.6c1-1,1.6-2.6,2.1-3.7c0-1.6-0.5-2.6-1.6-4.2c-1-1.6-2.6-2.6-3.7-3.1
	c-1-0.5-2.1,0-3.1,0.5c-0.5,0.5-1,1.6-1,2.1c0,1,0.5,2.6,1.6,5.2s2.1,4.2,2.1,5.8c0.5,1.6,0.5,3.1,0,4.2c-0.5,1-1,2.1-2.1,3.1
	c-1,1-2.6,1.6-3.7,1.6c-1.6,0-3.1,0-4.2-1c-1.6-0.5-2.6-2.1-3.7-3.1c-1.6-2.1-2.6-3.7-2.6-5.2c-0.5-1.6-0.5-3.1,0-4.7
	C64.5,577.2,65.6,575.6,67.1,574.5 M76.6,600.2l19.9-16.8l2.1,2.6l-19.9,16.8L76.6,600.2z M102.3,613.9l2.1,3.1
	c-2.6,1.6-4.7,2.1-7.3,2.1s-4.7-1.6-6.3-3.1c-2.1-2.1-3.1-4.2-3.7-5.8c-0.5-2.1,0-4.2,0.5-6.3c1-2.1,2.1-4.2,3.7-5.8
	c2.1-2.1,3.7-3.1,6.3-4.2c2.1-0.5,4.2-1,6.3,0c2.1,0.5,4.2,1.6,5.8,3.1c2.1,1.6,3.1,3.7,3.1,5.8c0.5,2.1,0,4.2-1,6.8l-3.1-1.6
	c1-1.6,1-3.1,1-4.7s-1-2.6-2.1-4.2c-1.6-1.6-3.1-2.1-4.7-2.6c-1.6,0-3.1,0-4.7,1c-1.6,0.5-2.6,1.6-4.2,3.1c-1.6,1.6-2.6,3.1-3.1,4.7
	c-0.5,1.6-1,3.1-0.5,4.7c0.5,1.6,1,2.6,2.1,4.2c1.6,1.6,3.1,2.1,4.7,2.1C98.6,615.5,100.2,614.9,102.3,613.9 M101.2,625.9l16.3-19.9
	l2.6,2.1l-6.8,8.4l10.5,8.4l6.8-8.4l2.6,2.1L117,638.5l-2.6-2.1l7.9-9.4l-10.5-8.4l-7.9,9.4L101.2,625.9z M150,630.1l2.6,2.1
	l-8.4,12.6c-1.6,2.1-2.6,3.7-4.2,4.7c-1.6,1-3.1,1.6-4.7,1.6c-1.6,0-3.7-0.5-5.8-2.1c-2.1-1.6-3.7-2.6-4.2-4.2c-1-1.6-1-3.1-0.5-4.7
	c0.5-1.6,1-3.7,2.6-5.8l8.4-12.6l2.6,2.1l-8.4,12.6c-1,2.1-2.1,3.1-2.1,4.7c0,1,0,2.1,0.5,3.1c0.5,1,1.6,2.1,2.6,2.6
	c2.1,1.6,4.2,2.1,5.2,1.6c1.6-0.5,3.1-2.1,4.7-4.7L150,630.1z M140.6,656.4l21-18.4l3.1,1.6l-3.1,27.8l-3.7-2.1l1-8.4l-9.4-5.2
	l-6.3,5.8L140.6,656.4z M152.1,650.1l7.9,4.2l1-7.9c0.5-2.1,0.5-4.2,1-5.8c-1,1.6-2.1,2.6-3.7,3.7L152.1,650.1z M163.7,669.5
	l10.5-23.6l3.1,1.6l4.7,24.1l7.9-18.9l3.1,1l-10.5,23.6l-3.1-1.6l-4.2-24.1l-7.9,18.9L163.7,669.5z M197.8,683.7l8.4-24.7l3.1,1
	l6.3,23.6l6.3-19.4l3.1,1l-8.4,24.7l-3.1-1l-6.3-23.6l-6.3,19.4L197.8,683.7z M224.5,678.9c1-4.2,3.1-7.3,5.8-8.9
	c2.6-1.6,5.8-2.1,9.4-1.6c2.1,0.5,4.2,1.6,5.8,3.1c1.6,1.6,2.6,3.7,3.1,5.8c0.5,2.1,0.5,4.7,0,7.3c-0.5,2.6-1.6,4.7-3.1,6.3
	c-1.6,1.6-3.1,3.1-5.2,3.7s-4.2,0.5-6.3,0c-2.6-0.5-4.2-1.6-5.8-3.1c-1.6-1.6-2.6-3.7-3.1-5.8C224,683.1,224,681,224.5,678.9
	 M227.7,680c-0.5,3.1-0.5,5.8,0.5,7.9c1,2.1,3.1,3.7,5.8,4.2c2.6,0.5,4.7,0,6.8-1c2.1-1.6,3.7-3.7,4.2-6.8c0.5-2.1,0.5-4.2,0-5.8
	c-0.5-1.6-1-3.1-2.1-4.2c-1-1-2.6-2.1-4.2-2.1c-2.6-0.5-4.7,0-6.8,1C230.3,673.7,228.7,675.8,227.7,680 M250.2,697.3l3.7-25.7
	l11.5,1.6c2.1,0.5,4.2,1,5.2,1.6c1,0.5,2.1,1.6,2.6,2.6s0.5,2.6,0.5,4.2c-0.5,1.6-1,3.1-2.6,4.2c-1.6,1-3.1,1.6-5.8,1.6
	c1,0.5,1.6,1,2.1,1.6c1,1,1.6,2.1,2.1,3.7l3.7,7.9l-4.2-0.5l-2.6-5.8c-0.5-1.6-1.6-3.1-2.1-3.7c-0.5-1-1-1.6-1.6-2.1
	c-0.5-0.5-1-0.5-1.6-1c-0.5,0-1-0.5-2.1-0.5l-4.2-0.5l-1.6,11.5L250.2,697.3z M255.5,683.7l7.3,1c1.6,0,2.6,0,3.7,0s1.6-0.5,2.1-1
	c0.5-0.5,1-1.6,1-2.1c0-1,0-2.1-1-3.1c-0.5-1-2.1-1.6-4.2-1.6l-8.4-1L255.5,683.7z M275.9,700.4l1-25.7h5.2l5.2,18.9
	c0.5,1.6,1,3.1,1,3.7c0.5-1,1-2.1,1.6-4.2l6.8-17.8h4.7l-1,25.7h-3.1l1-21.5l-8.4,21.5h-3.1l-6.8-22.6l-1,22L275.9,700.4z
	 M303.2,701l9.4-26.2h3.7l11.5,25.7h-3.7l-3.1-7.9l-11,0.5l-2.6,7.9H303.2z M310.5,689.9h8.9l-3.1-7.3c-1-2.1-1.6-4.2-2.1-5.2
	c-0.5,1.6-0.5,3.1-1,5.2L310.5,689.9z M330.5,699.4l-3.1-25.7l3.7-0.5l2.6,22.6l12.6-1.6l0.5,3.1L330.5,699.4z M369.8,665.8l3.1-0.5
	l3.1,14.7c0.5,2.6,0.5,4.7,0.5,6.3c0,1.6-1,3.1-2.1,4.2c-1,1-3.1,2.1-5.8,2.6c-2.6,0.5-4.2,0.5-6.3,0c-1.6-0.5-3.1-1.6-4.2-2.6
	c-1-1.6-1.6-3.7-2.6-6.3l-3.1-14.7l3.1-0.5l3.1,14.7c0.5,2.1,1,3.7,1.6,4.7c0.5,1,1.6,1.6,2.6,2.1c1,0.5,2.6,0.5,3.7,0
	c2.6-0.5,4.2-1.6,4.7-2.6c1-1.6,1-3.7,0-6.8L369.8,665.8z M384,688.4l-7.9-24.7l3.1-1l19.4,15.2l-6.3-19.4l3.1-1l7.9,24.7l-3.1,1
	l-19.4-15.2l6.3,19.4L384,688.4z M409.7,678.9l-10.5-23.6l3.1-1.6l10.5,23.6L409.7,678.9z M424.9,672.6l-20.5-18.9l3.1-1.6
	l14.2,14.2c1,1,2.1,2.1,3.1,3.1c0-1.6-0.5-3.1-0.5-4.2l-2.1-19.9l3.1-1.6l2.1,27.8L424.9,672.6z M440.1,664.8L427,642.2l16.3-9.4
	l1.6,2.6l-13.1,7.9l4.2,6.8l12.6-7.3l1.6,2.6l-12.6,7.3l4.7,7.3l13.6-8.4l1.6,2.6L440.1,664.8z M460.6,652.2l-15.7-21l9.4-6.8
	c2.1-1.6,3.1-2.1,4.7-2.6c1-0.5,2.6-0.5,3.7,0c1,0.5,2.1,1.6,3.1,2.6c1,1.6,1.6,3.1,1.6,4.7c0,1.6-1,3.7-3.1,5.2c1,0,1.6,0,2.6,0
	c1.6,0,2.6,0.5,4.2,1l7.9,3.1l-3.7,2.6l-5.8-2.1c-1.6-0.5-3.1-1-4.2-1.6c-1-0.5-1.6-0.5-2.6-0.5c-0.5,0-1,0-1.6,0.5
	c-0.5,0-1,0.5-1.6,1l-3.1,2.6l6.8,9.4L460.6,652.2z M454.8,638.5l5.8-4.2c1-1,2.1-1.6,2.6-2.6c0.5-1,0.5-1.6,0.5-2.6
	c0-1-0.5-1.6-1-2.1c-0.5-1-1.6-1.6-2.6-1.6c-1,0-2.6,0.5-4.2,1.6l-6.8,4.7L454.8,638.5z M475.3,631.2l2.1-2.6c1,1,2.1,1.6,3.1,1.6
	c1,0,2.1,0,3.1,0c1-0.5,2.6-1,3.7-2.1c1-1,1.6-1.6,2.1-2.6c0.5-1,0.5-2.1,0.5-2.6c0-1-0.5-1.6-1-2.1s-1-1-2.1-1
	c-0.5,0-1.6,0-2.6,0.5c-0.5,0.5-2.1,1-4.2,2.1c-2.1,1-3.7,2.1-4.7,2.1c-1.6,0.5-2.6,0.5-3.7,0c-1-0.5-2.1-1-2.6-1.6
	c-1-1-1.6-2.1-1.6-3.7c0-1.6,0-2.6,0.5-4.2s1.6-2.6,3.1-3.7c1.6-1,3.1-2.1,4.2-2.6c1.6-0.5,3.1-0.5,4.2,0c1.6,0.5,2.6,1,3.7,2.1
	l-2.1,2.6c-1-1-2.6-1.6-3.7-1.6c-1.6,0-2.6,0.5-4.2,2.1c-1.6,1.6-2.6,2.6-2.6,3.7s0,2.1,0.5,3.1c0.5,0.5,1.6,1,2.1,1
	c1,0,2.6-0.5,5.2-2.1c2.6-1.6,4.2-2.1,5.2-2.6c1.6-0.5,3.1-0.5,4.2,0c1,0.5,2.1,1,3.1,2.1c1,1,1.6,2.1,1.6,3.7c0,1.6,0,3.1-0.5,4.2
	c-0.5,1.6-1.6,2.6-3.1,4.2c-1.6,1.6-3.7,2.6-5.2,3.1c-1.6,0.5-3.1,0.5-4.7,0C477.9,633.3,476.3,632.2,475.3,631.2 M499.9,619.7
	l-17.8-18.9l2.6-2.6l17.8,18.9L499.9,619.7z M511.5,608.1l-16.8-15.7l-5.8,6.3l-2.1-2.1l14.2-15.2l2.1,2.1l-5.8,6.3l16.8,15.7
	L511.5,608.1z M527.2,589.2l-8.4-6.8l-17.8-1.6l2.6-3.1l9.4,1c1.6,0,3.7,0.5,5.2,0.5c-0.5-1.6-1-3.1-2.1-5.2l-2.6-8.9l2.6-3.1
	l5.2,17.3l8.4,6.8"/>
<path class="st0" d="M349.4,581.9c11,4.7,17.3,10,17.3,15.7s-6.3,11.5-17.3,15.7"/>
<path class="st0" d="M259.7,200c1.6,0,3.1,0,4.2,0v143.2h-87.6V213.6C197.2,205.2,227.1,200,259.7,200 M429.1,608.1
	c-14.2,8.9-30.4,14.2-48.3,14.2c-8.4,0-16.3-1-23.6-3.1c10-6.3,15.7-13.6,15.7-21v-0.5V445h56.7v163.1H429.1z M267,200.5
	c36.7,1,68.7,8.4,87.6,18.9v124.3H267V200.5z M357.8,221c3.7,2.1,6.8,4.7,8.9,7.3v114.9h-8.9v-81.3V221z M173.6,343.7h-12.1V221.5
	c3.7-2.1,7.3-4.2,12.1-6.3V343.7z M372.4,266.1c2.6,0,5.2,0.5,7.9,0.5c17.8,0,34.6-5.2,48.3-14.2v91.8h-56.1V266.1z M366.7,584.5
	c-2.1-2.6-5.2-4.7-8.9-7.3V432.4h8.9V584.5z M354.6,575.6c-18.9-11-50.9-18.4-87.6-18.9V432.9h87.6V575.6z M264.4,556.7
	c-1.6,0-3.1,0-4.2,0c-33,0-62.4,5.2-83.4,13.6V432.9h87.6L264.4,556.7L264.4,556.7z M173.6,571.4c-4.2,2.1-8.4,4.2-12.1,6.3V432.9
	h12.1"/>
<path class="st2" d="M320,313.8h6.8c0,0,1,3.7,5.8,5.2c0,0,5.2,1.6,1.6,6.3c0,0-1.6,1-3.1,0.5v-4.7c0,0,0-1.6-2.1-1.6
	c0,0-2.1,0-2.1,2.1v11h-3.7c0,0-2.6,0.5-2.6-2.6s0-8.4,0-8.4s0-1.6-1.6-1.6c-1.6,0-2.1,1-2.1,2.1c0,1,0,4.7,0,4.7s-4.7,0-5.2-4.2
	c0,0,0-2.6,3.1-3.1C314.7,319.1,319.5,318.5,320,313.8 M310.5,310.2c0,0-2.6,0-2.6,2.1c0,0,0,2.1,2.6,2.1h5.8c0,0-1,1.6-4.2,1.6
	c0,0-5.2,1.6-4.2,7.3c0,0,0,6.3,8.9,6.3c0,0-1.6,6.3,5.8,6.3h14.7c0,0,2.1,0,1.6-2.1c0,0,0-1.6-2.1-1.6H331v-2.6
	c0,0,7.9,0.5,8.4-6.8c0,0,0.5-3.7-3.1-5.8c0,0-3.1-1-4.7-2.6h6.3c0,0,2.1,0,2.1-2.1c0,0,0.5-2.1-2.6-2.1L310.5,310.2z M330.5,305.4
	c0,0,4.7,0,4.7-3.1c0,0,0-2.1-4.7-2.1V305.4z M320.5,300.2h6.3v5.2h-6.3V300.2z M316.8,300.2v4.7c0,0-4.7,0.5-4.7-2.6
	C312.1,302.3,311.6,300.2,316.8,300.2 M311.1,290.7c0,0-2.6-0.5-2.6,2.1c0,0-0.5,2.1,2.6,2.1h10.5v1.6h-6.8c0,0-6.8,1-6.3,6.3
	c0,0,0,5.2,6.3,5.8h19.4c0,0,4.7-0.5,4.7-6.8c0,0,0-5.2-6.3-5.2h-6.8v-1.6h11c0,0,2.6-0.5,2.6-2.1c0,0,0-2.1-2.6-2.1h-10.5
	c0,0,0-3.1-2.1-3.1c0,0-2.1,0-2.1,3.1L311.1,290.7z M296.4,303.9c0,0-6.8,1-5.2,7.3c0,0,3.7,5.2,1.6,10c0,0-2.6,4.7,0,5.8
	c0,0,3.7,0,4.2-4.2c0,0,1.6-4.2-0.5-8.9c0,0-2.6-4.7,1-5.2c0,0,5.2-1.6,5.8,3.1c0.5,4.7,0,17.8,0,17.8s0,3.1-2.1,3.1h-7.3
	c0,0-2.1,0.5-1.6,2.1c0,0,0,2.1,3.1,2.1c0,0,12.1,1,12.1-5.8v-20.5c0,0,0-5.8-4.7-6.3C301.6,303.9,298.5,303.3,296.4,303.9
	 M293.8,287.6c0,0-2.6,0.5-2.6,2.1c0,0,0.5,2.1,3.1,2.1c0,0,7.9-1.6,7.9,2.6c0,0,0.5,3.7-4.7,4.2h-4.7c0,0-2.6,0-2.1,1.6
	c0,0,0,2.1,2.6,2.1h6.8c0,0,5.2-0.5,5.8-6.8c0,0,1-6.8-5.8-7.3h-6.3V287.6z M313.2,248.3v-3.1h-16.3c0,0-2.6,0-2.6,3.1H313.2z
	 M313.2,255.6v-3.7h-18.4c0,0-0.5,3.7,2.6,3.7C300.6,256.1,313.2,255.6,313.2,255.6 M316.8,251.9v3.7h15.7c0,0,3.1,0,3.1-3.7H316.8z
	 M316.8,245.1v3.7h18.9c0,0,1-3.7-3.7-3.7C327.3,245.1,316.8,245.1,316.8,245.1 M331,227.3c0,0,4.2,1.6-0.5,3.7h-13.6v4.7h15.7
	c0,0,3.1,0.5,3.1-3.7v-3.1c0,0,1.6-4.2,3.1,0.5c0,0,1,10-5.2,10h-17.3v2.1h15.2c0,0,6.3-0.5,6.8,5.8v6.8c0,0,0,4.7-5.2,5.2h-16.8
	v4.2h19.9c0,0,4.2,1.6,0,3.7h-19.9v4.7h19.9c0,0,4.7,1.6,0,3.7h-43.5c0,0-5.8-2.1,0-3.7h19.9v-4.7h-20.5c0,0-4.2-2.1,0-3.7h20.5
	v-4.2h-16.3c0,0-5.8,0.5-5.8-5.2v-5.8c0,0,0-6.3,6.3-6.3h15.7v-2.1H298c0,0-2.6-2.6,0.5-3.7h14.2v-4.7h-16.3c0,0-2.1,0-2.1,2.1
	c0,2.1,0,4.2,0,4.2s0,2.1-1.6,2.1c0,0-1.6,1-2.1-2.1v-5.2c0,0,0-5.2,5.8-5.8C302.7,227.3,331,227.3,331,227.3 M210.9,313.8
	c0,0-1.6,0-1,1h21c0,0,0-1-1.6-1C227.7,313.8,210.9,313.8,210.9,313.8 M208.8,319.1v1h21.5v-1H208.8z M209.3,323.3c0,0,0,1,2.1,1.6
	c1.6,0,17.3,0,17.3,0s1,0,1.6-1.6H209.3z M210.9,310.2c0,0-5.2,0-5.2,5.2v6.8c0,0,0,5.8,6.8,6.3v5.2c0,0,0,2.1,2.1,1.6
	c0,0,1.6,0,1.6-2.1c0-1.6,0-5.2,0-5.2h8.4v5.2c0,0,0,2.1,2.1,2.1c0,0,2.1,0,2.1-2.1V328c0,0,5.8,0,6.3-6.8v-4.7c0,0-0.5-5.8-5.8-5.8
	C224,310.2,210.9,310.2,210.9,310.2 M221.4,299.7h7.3c0,0,1,0,1.6,1.6h-8.9L221.4,299.7L221.4,299.7z M218.2,301.2v-1.6h-6.3
	c0,0-2.1,0-2.1,1.6H218.2z M221.9,304.4h8.4c0,0-0.5,1.6-2.1,1.6c-1.6,0-6.3,0-6.3,0V304.4z M209.8,304.4c0,0,0.5,1.6,2.6,1.6h5.8
	v-1.6H209.8z M202,294.9c0,0-3.1,0.5-2.6,3.1s1,2.6,1,2.6h5.2c0,0,2.1-4.2,6.3-4.2h16.8c0,0,4.7,0.5,5.8,4.2h4.7l0.5-2.6
	c0,0,1-2.6-1.6-2.6C236.1,294.9,202,294.9,202,294.9 M219.3,287.6c0,0-1,0-1,1v2.6H202c0,0-4.7,0.5-5.8,5.2c0,0,0,2.1,1,4.7
	c1,3.1,3.1,12.6,1.6,20.5c-1.6,7.9-2.1,10-2.1,10s-1.6,2.6,1,3.7c0,0,2.1,0.5,2.6-2.1c1-2.6,4.2-15.7,1-29.4h4.2
	c0,0,0.5,4.7,6.3,4.7c5.8,0,14.7,0,14.7,0s5.8,0,6.8-4.7h4.2c0,0-3.1,15.7,1.6,29.9c0,0,0.5,2.6,3.1,1.6c0,0,1.6-0.5,1-2.6
	c-0.5-2.1-5.2-14.2-1-31.5c0,0,2.1-5.2-0.5-7.9c-2.6-2.6-2.6-2.6-4.7-2.6h-15.2v-2.1C221.9,289.2,221.9,286.6,219.3,287.6
	 M236.1,247.7c0,0,2.1-0.5,2.1,1.6c0,0,0.5,2.1-2.1,2.1c-2.6,0-14.2,0-14.2,0s-1.6,0-1.6,1c0,0,0,1,1.6,1c1.6,0,6.8-0.5,7.3,3.1
	c0.5,3.7,0,4.2,0,4.2h4.2c0,0,0-6.8,3.1-7.3c0,0,3.1-0.5,2.1,2.1c-1,2.6-1.6,7.3-1,12.1c0.5,4.7,2.1,6.3,0.5,7.3
	c0,0-2.6,1.6-3.7-2.6c-1-4.2-0.5-5.2-0.5-5.2s0-2.1-1.6-2.1c-1,0-2.1,0-2.1,0v6.8c0,0,0.5,3.7-1.6,3.7c-2.1,0-2.1-3.7-2.1-3.7v-5.8
	c0,0,0-1-0.5-1H224c0,0,0.5,7.3-2.6,9.4c0,0-1,1-2.6,0c0,0-1-1.6,0-3.1c1-1.6,2.1-5.8,0.5-8.9c0,0-2.1-2.6-0.5-3.7
	c0,0,2.1-1.6,3.1,1l0.5,1.6h4.2c0,0,0.5-4.2,0-4.2h-4.2c0,0-4.2,0-4.2-5.2c0,0,0.5-4.2,4.7-4.2L236.1,247.7L236.1,247.7z
	 M219.3,233.6c0,0-2.6,0-2.6,1.6c0,2.1,2.1,2.1,3.7,2.1c1.6,0,19.4,0,19.4,0s1.6,1-0.5,1.6c-2.1,0-20.5,0-20.5,0s-2.1,0.5-1.6,2.1
	c0,0,0.5,1.6,2.1,1.6h16.3c0,0,1.6,1-0.5,1c-1.6,0-16.3,0-16.3,0s-2.1,0-2.1,2.1c0,0,0,1.6,2.6,1.6h12.1c0,0,6.8,0.5,7.9-1.6
	c0,0,1.6-1,1,1c0,2.1,0,26.8,0,26.8s-0.5,2.6,2.1,2.6c0,0,2.1,0.5,2.1-2.6s0-33.6,0-33.6s0.5-4.7-4.2-5.2c-4.7-0.5-12.6,0-12.6,0
	v-2.1h14.7c0,0,1.6,0,1.6-1.6s-1-2.1-2.1-2.1c-1,0-14.2,0-14.2,0s0-1.6-1.6-2.1c-1.6,0-2.1,1-2.1,2.6v4.2H219.3z M207.7,244.1v3.7
	c0,0,3.7,0.5,4.2-0.5c0.5-1,1-3.1,0-3.1C210.9,244.1,208.3,244.1,207.7,244.1 M198.8,227.3c0,0-2.6,0.5-2.6,2.1s0.5,1.6,3.1,1.6
	c2.6,0,10.5,0,10.5,0s2.1,0,2.1,1.6c0,2.1-2.6,1.6-4.2,1.6c-1,0-3.7,1-3.7,3.7c0,2.6,0,3.1,0,3.1s-4.2,1-4.7-2.1
	c0-3.1,0.5-4.7-0.5-4.7c-1,0-3.1-0.5-3.1,2.1c0,2.1-1,7.9,6.3,8.9h2.1v3.1c0,0-3.7,0-5.2,1c-2.1,1-3.1,3.7-2.6,6.3s2.1,6.3,1,12.1
	c-1,5.8-2.1,7.3-0.5,7.9c1.6,0.5,3.1-0.5,3.7-2.6c0.5-2.1,2.1-8.4,1-13.6c-1-5.2-1.6-6.8,0-7.3c1.6-0.5,3.1,0,3.1,0v21.5
	c0,0-0.5,2.1,2.1,2.1c0,0,1.6,0,1.6-2.6c0-2.6,0-21,0-21h3.1c0,0-2.6,15.7,1.6,22c0,0,1,2.6,2.6,1.6c0,0,1.6-0.5,0.5-2.6
	c-1-2.1-3.1-10-1.6-18.9c0,0,2.1-7.9,0.5-10.5c-1-2.1-3.1-2.6-4.2-2.6c-1,0-3.1,0-3.1,0s0-2.6,2.1-2.6c2.1,0,5.8-0.5,5.8-3.7
	s-1-5.8-3.7-6.3C208.8,226.7,198.8,227.3,198.8,227.3"/>
<path class="st2" d="M326.3,500.6h7.9c0,0,5.8,1.6,5.8,5.8c0,4.2,0,5.8,0,5.8s0.5,5.8-6.3,5.8h-6.8c0,0-2.1,0-2.1-2.1c0,0,0-1,2.6-1
	h6.8c0,0,1.6,0,1.6-3.1h-8.9c0,0-2.1,0-2.1-2.1c0,0,0-1.6,1.6-1.6h9.4c0,0,0.5-2.6-2.6-2.6h-6.8c0,0-2.1,0-2.1-2.1
	C324.2,502.1,323.7,500.6,326.3,500.6 M303.7,500.6h-7.9c0,0-5.8,1.6-5.8,5.8c0,4.2,0,5.8,0,5.8s-0.5,5.8,6.3,5.8h6.8
	c0,0,2.1,0,2.1-2.1c0,0,0-1-2.6-1h-6.8c0,0-2.1,0-1.6-3.1h9.4c0,0,2.1,0,2.1-2.1c0,0,0-1.6-1.6-1.6h-9.4c0,0-0.5-2.6,2.6-2.6h6.8
	c0,0,2.1,0,2.1-2.1C305.8,502.1,306.3,500.6,303.7,500.6 M314.7,506.9l-3.1,1.6c0,0-1.6,1,0,1.6l3.1,1.6l3.7-2.1c0,0,1.6-0.5,0-1.6
	C317.4,507.9,314.7,506.9,314.7,506.9 M309.5,500.6c0,0-2.6,0-2.6,1.6c0,0-0.5,2.1,2.6,2.6c0,0-3.1,1.6-2.6,4.7c0,0,0,2.1,3.1,3.7
	l-2.1,1c0,0-1.6,1-0.5,2.6c0,0,1,1.6,3.1,0.5l4.2-2.1l4.7,1.6c0,0,2.1,1,3.1-1c0,0,0.5-1.6-1-2.1l-1.6-0.5c0,0,2.6-1,2.6-4.7
	c0,0,0-2.6-2.6-3.7c0,0,3.1-1,2.1-3.1c0,0-1-1.6-2.6-1l-4.7,2.1C315.3,502.7,311.6,501.1,309.5,500.6 M311.1,527.3
	c0,0-2.1,0-2.1,1.6c0,0-0.5,2.1,2.1,2.1h7.9c0,0,2.1,0,2.1-2.1c0,0,0-1.6-1.6-1.6C317.9,526.8,311.1,527.3,311.1,527.3 M301.1,524.2
	c0,0-2.1-0.5-2.1,2.6s0,8.9,0,8.9s-0.5,4.7,5.8,4.7h8.4v2.6c0,0,0,2.6-1.6,2.6c-0.5,0-1,0.5-1.6-0.5c-1-1-1.6-1-3.1-1
	c-1.6,0-4.7-0.5-6.3,2.1c0,0-1.6,1.6,0,2.6c0,0,1,1,3.1,0c0,0,2.6-1.6,4.7-0.5c0,0,3.1,2.6,6.8,0c0,0,2.1-1.6,2.6-4.2V541h7.3
	c0,0,5.8,0,5.8-5.8c0-6.3,0-9.4,0-9.4s0-2.1-2.1-1.6c0,0-2.1,0-1.6,3.1v7.9c0,0,0,2.6-2.6,2.6h-7.3v-2.1c0,0,7.3,1,7.9-5.8
	c0,0,0.5-5.8-4.7-5.8h-10c0,0-5.2,0.5-5.2,5.8c0,0,0,5.8,8.4,5.2v2.1h-7.3c0,0-2.6,0.5-3.1-3.1v-7.9
	C302.7,526.3,303.2,524.2,301.1,524.2 M300.1,518.9c0,0-6.3-1-8.4,3.7c0,0-1,2.6,0,6.3c1,3.7,2.6,8.4,1,12.6c-1.6,4.2-2.6,6.3-1,7.3
	c0,0,1.6,1,3.1-2.1c1.6-3.1,2.6-10.5,1-16.8c0,0-2.6-4.7-1-6.8c0,0,1-1,4.2-1c3.1,0,32.5,0,32.5,0s4.7,0,2.6,3.7
	c0,0-3.7,10.5-0.5,18.4c0,0,1,5.2,3.7,4.7c0,0,2.1,0,0.5-4.2c-1.6-3.7-2.6-8.9-1-15.7c0,0,2.1-5.2,0.5-7.9c0,0-1-2.6-4.7-2.6
	S300.1,518.9,300.1,518.9 M220.3,530.5h1c0,0-0.5,7.3,0,13.1c0.5,5.2,5.2,5.2,5.2,5.2h8.4c1.6,0,2.1-1.6,2.1-1.6
	c0-1.6-1.6-2.1-1.6-2.1s-4.7,0.5-8.4,0c-3.1-0.5-2.6-3.7-2.6-3.7s0-8.9,0-10c0-1.6,1.6-1,2.1-1c0.5,0,6.3,0,8.9,0c2.6,0,3.1,1,3.1,1
	c1.6,2.6-2.1,6.8-2.1,6.8c-2.1,4.7,1.6,8.4,1.6,8.4c2.6,3.7,4.2,2.1,4.2,2.1c1.6-1.6-1.6-4.2-1.6-4.2c-3.1-3.1,0-6.3,0-6.3
	c3.1-3.1,1.6-5.8,1.6-5.8c-1.6-5.8-6.8-5.8-12.6-5.2c-6.3,0.5-8.9,0-8.9,0v-2.1h19.4c3.1,0,2.6-2.1,2.6-2.1c0-1.6-2.1-2.1-2.1-2.1
	h-19.9v-2.6h19.9c2.1,0,2.1-2.1,2.1-2.1c0-2.1-2.1-2.1-2.1-2.1h-20.5v-3.1h20.5c2.1,0,2.1-1.6,2.1-1.6c0-1.6-1.6-1.6-1.6-1.6H224
	c0.5-2.6,4.2-2.6,4.2-2.6h12.6c1.6,0,2.1,0,2.1-2.1c0-1.6-2.1-1.6-2.1-1.6h-14.7c0,0-6.3,0-6.3,6.3h-0.5h1h-1.6
	c0-6.3-6.3-6.3-6.3-6.3h-14.7c0,0-2.1,0-2.1,1.6c0,1.6,1,2.1,2.1,2.1h12.6c0,0,3.7,0,4.2,2.6h-17.3c0,0-2.1,0-1.6,1.6
	c0,0,0,1.6,2.1,1.6h20.5v3.1h-20.5c0,0-2.1,0-2.1,2.1c0,0,0,1.6,2.1,2.1h19.9v2.6h-19.9c0,0-2.1,0.5-2.1,2.1c0,0-0.5,2.1,2.6,2.1
	h19.4v2.1c0,0-2.6,1-8.9,0c-6.3-0.5-11-1-12.6,5.2c0,0-1,2.6,1.6,5.8c0,0,3.1,3.1,0,6.3c0,0-3.1,2.1-1.6,4.2c0,0,1.6,1.6,4.2-2.1
	c0,0,3.7-3.7,1.6-8.4c0,0-3.7-3.7-2.1-6.8c0,0,0.5-1,3.1-1c2.6,0,8.4,0,8.9,0c0.5,0,2.6-0.5,2.1,1c0,1.6,0,10,0,10s0.5,3.1-2.6,3.7
	c-3.1,0.5-8.4,0-8.4,0s-1.6,0-1.6,2.1c0,0,0.5,1.6,2.1,1.6h8.4c0,0,4.7,0,5.2-5.2c0.5-5.2,0-13.1,0-13.1H220.3L220.3,530.5z
	 M307.4,480.6c0,0-2.1,0-2.1,1.6c0,0,0,2.1,2.1,2.1h23.1c0,0,2.1,0,2.1-2.1c0,0-0.5-1.6-1.6-1.6
	C329.4,480.6,307.4,480.6,307.4,480.6 M307.9,466c0,0-2.1,0-2.6,2.1c0,0,0,2.1,2.6,2.1h25.2c0,0,2.1,0,2.1,1.6c0,0-1-0.5-3.1-0.5
	h-24.1c0,0-2.1,0-2.6,1.6c0,0-0.5,1.6,2.6,2.1h23.6c0,0,0,1-2.6,1h-20.5c0,0-2.6,0-2.6,1.6c0,0,0,2.1,2.6,2.1h21c0,0,3.7,0,6.3-3.1
	v10.5c0,0-0.5,2.1,2.1,2.1c0,0,1.6,0,1.6-2.6c0-2.6,0-9.4,0-9.4s0-2.1-1-3.1c0,0,2.6-4.7-1.6-6.8c0,0-2.1-1-5.2-1L307.9,466
	L307.9,466z M320.5,458.6H310v1.6h10.5V458.6z M323.7,458.6h10.5v1.6h-10.5V458.6z M323.7,455.5h10.5v-1.6h-10.5V455.5z
	 M307.4,440.3c0,0-2.6,0-2.1,2.6c0,2.6,1,5.2,4.7,5.2h10.5v6.8H310c0,0,0.5-5.2-1.6-5.8c-2.1-0.5-3.1,0.5-2.6,2.6
	c0.5,2.1,1.6,5.8,0,8.9c0,0-1.6,3.1,0.5,3.7c0,0,2.1,0,2.6-1.6h11.5c0,0,1,3.7,3.7,0h11c0,0,0.5,2.1,2.6,2.1c0,0,2.1-1,1-3.1
	c0,0-1-2.6-0.5-8.9c0,0,1.6-2.6,0-3.7c0,0-2.1-1-3.1,1h-11.5v-2.1h10.5c0,0,4.2,0.5,4.7-4.7c0,0,0-3.1-2.1-3.7c0,0-2.1-0.5-2.6,2.1
	c0,0,0,0.5,0,1c0,0,1,1.6-0.5,1.6h-10.5c0,0,0-4.7-5.2-4.7h-6.3c0,0-2.1,0.5-1.6,2.1c0,0,0,1.6,2.1,1.6h5.2c0,0,2.1,0,2.1,1.6h-8.9
	c0,0-2.1,0-1.6-2.1C309,443.4,310,440.3,307.4,440.3 M297.4,439.7c0,0-2.1-0.5-2.1,2.1v8.9h-2.6c0,0-2.1,0.5-2.1,2.1
	c0,0,0.5,2.1,2.1,2.1h2.6v29.9c0,0,0,2.6,2.1,2.6c0,0,2.1,0,2.1-2.6v-30.4h3.1c0,0,2.1,0,1.6-2.1c0,0,0-1.6-1.6-1.6h-3.1v-8.4
	C299.5,442.3,300.1,439.7,297.4,439.7 M231.3,440.3c0,0-4.7,0.5-5.2,5.8c0,0-0.5,6.8,5.2,7.3h11.5c0,0,1.6,0,1.6-2.1
	c0,0,0-1.6-1.6-1.6c-1.6,0-10.5,0-10.5,0s-2.1-0.5-2.1-3.7c0,0,0-2.1,2.6-2.1h10c0,0,1.6,0,1.6-2.1c0,0,0-1.6-2.1-1.6
	C239.7,440.3,231.3,440.3,231.3,440.3 M210.9,471.2h17.8v11c0,0,0.5,2.1-2.6,2.1c-3.1,0-13.6,0-13.6,0s-1.6,0.5-2.1-3.1
	C210.9,478,210.9,471.2,210.9,471.2 M210.9,464.9c0,0,0-2.6-1.6-2.1c-1.6,0-2.1,1.6-2.1,2.6s0,17.8,0,17.8s0,5.8,5.8,5.8h14.2
	c0,0,5.8-0.5,5.8-5.8c0-5.2,0-17.8,0-17.8s0-2.1-2.1-2.1c-1.6,0-2.1,2.1-2.1,2.1v3.1h-17.8L210.9,464.9z M220.3,439.7
	c0,0-2.1-0.5-2.1,3.1c0,3.7,0,13.1,0,13.1h-15.7c0,0-6.3,0-6.3,6.3c0,0,0.5,3.1,2.1,4.7c1,1.6,2.6,8.9,0,15.2c0,0-3.1,4.2-1,5.2
	c0,0,1.6,1.6,4.2-2.1c0,0,3.7-6.8,1.6-16.3c0,0-3.7-8.4-1.6-9.4c0,0,1-0.5,3.1-0.5c2.1,0,34.1,0,34.1,0s3.7,1,1.6,3.7
	c-1.6,3.1-4.7,12.1-1,19.9c0,0,1.6,5.8,4.2,4.7c0,0,2.1-1,0.5-3.1c0,0-4.2-5.8-2.6-14.2c0,0,1.6-4.2,2.6-5.8c0,0,2.1-4.7-1.6-7.3
	c0,0-1.6-1-4.7-1h-14.7v-13.6C222.4,442.9,222.4,440.3,220.3,439.7 M198.3,440.3c0,0-2.1,0-2.1,2.1c0,0,0.5,2.1,2.1,1.6h9.4
	c0,0,2.6-0.5,2.6,2.1c0,0,0.5,2.6-2.6,3.1h-8.9c0,0-2.6,0.5-2.1,2.1c0,0,0,1.6,2.1,1.6h10c0,0,5.2-0.5,5.2-6.3c0,0,0-6.3-5.8-6.3
	L198.3,440.3"/>
<path class="st3" d="M232.9,612.8v-22h-7.3v-1.6c4.7,0,7.9-1.6,8.4-5.8h2.1v29.4H232.9z M245.5,606.5h2.6c0.5,3.1,2.6,4.7,5.8,4.7
	c5.2,0,7.9-4.2,8.4-13.1l0,0c-2.1,3.1-4.7,4.7-7.9,4.7c-5.8-0.5-8.9-3.7-8.9-9.4c0-6.3,3.1-9.4,9.4-9.4c6.8,0,10,5.2,10.5,14.7
	c-0.5,10-3.7,14.7-11,14.7C248.6,612.8,246,610.7,245.5,606.5 M254.4,585.6c-4.7,0.5-6.8,3.1-6.8,7.9s2.6,6.8,6.8,6.8
	c4.2,0,6.3-2.6,6.3-7.3C261.2,588.7,258.6,586.1,254.4,585.6 M281.7,612.8v-7.3h-13.6v-2.1l13.6-19.4h2.6v19.9h4.2v2.1h-4.2v7.3
	h-2.6V612.8z M281.7,587.7l-11,15.7h11V587.7z M311.1,590.8h-2.6c-0.5-3.1-2.6-4.7-5.8-5.2c-5.2,0-8.4,4.2-8.4,13.6
	c2.1-3.1,4.7-4.7,7.9-4.7c6.3,0,9.4,3.1,9.4,9.4c0,5.8-3.1,8.9-9.4,9.4c-6.8,0-10.5-4.7-10.5-14.2c0-10.5,3.7-15.7,11-15.7
	C307.4,583.5,310,586.1,311.1,590.8 M302.2,596.6c-4.2,0.5-6.3,2.6-6.8,7.3c0,4.7,2.6,7.3,6.8,7.3s6.3-2.6,6.8-7.3
	C308.4,599.2,306.3,596.6,302.2,596.6"/>
<path class="st3" d="M343.1,357.4l-2.6,1h-0.5l0,0h-0.5c-0.5,0.5-3.7,2.1-4.7,2.1c0,0.5-1.6,1-2.1,1s-1.6,1-2.1,1l0,0h-1
	c-1,0-1.6-0.5-2.6-0.5c-1,0-1,0.5-2.1,0.5h-0.5c-1,0-1.6,1.6-2.1,2.1c0.5,1,0,0.5,1,1h0.5l0,0c1,0,2.6,2.1,3.1,2.6
	c0.5,1,1.6,2.6,3.1,2.6c1,0,1.6-1,2.1-1c1-0.5,1-1,1.6-1.6v-0.5v-0.5v-0.5l-1-1.6c0-0.5,0.5-1.6,1-2.1s1.6-0.5,2.1-1
	c1-1,0.5-0.5,2.1-1l2.1-1h0.5v1c0,1.6-4.7,4.2-4.7,5.2v0.5l0.5,0.5l0,0h0.5l1-0.5l1-1c0.5-0.5,1.6-1,2.1-1.6c1-0.5,3.1-2.1,4.7-2.1
	h0.5c0.5-1,2.1-1,3.1-1.6c1-0.5,2.1-1,2.1-2.6v-0.5c-0.5-1-2.1-2.1-3.1-2.6h-0.5h-1h-0.5c-1,0.5-1,0.5-1.6,1
	C344.1,356.8,343.1,356.3,343.1,357.4 M313.2,363.7v0.5c-0.5,0.5-1.6,3.1-1.6,4.2v1.6c0,1,0.5,1.6,0.5,3.1c0,0.5,1.6,2.1,2.1,2.1h1
	h0.5c0.5-0.5,2.1-1,2.1-1.6v-0.5c0-1.6,0.5-2.1,1-3.7v-0.5v-0.5l-1.6-2.6c0-0.5,0-0.5,0-1v-3.1c0-0.5,0,0,0-0.5
	c-0.5-0.5-0.5-1.6-1.6-1.6C314.7,358.9,314.2,363.1,313.2,363.7 M346.2,375.2c-1,0-1.6,1-2.6,1c-1,0.5-2.1,0.5-2.1,2.1v0.5h1l1-0.5
	h0.5h0.5h0.5v0.5c-0.5,0.5-1,0.5-1.6,1.6c-0.5,1-0.5,1-1,1.6c-0.5,1.6-1.6,2.6-2.6,3.1h-1.6h-0.5c-0.5,0-0.5,0.5-1,0.5
	c0,0.5-0.5,1.6-0.5,2.6c-0.5,1-0.5,0.5-1,2.1c-0.5,1.6-1,2.6-1.6,4.7l-0.5,2.6v1.6c0,1-0.5,1-0.5,2.1v1c0,1.6,0,2.6,0.5,3.7
	c0,1.6,0.5,2.1,1,3.1c0.5,0.5,1.6,1.6,2.1,2.1c0.5,0,3.1,0.5,3.7,0.5h4.7c0.5,0,0.5,0,0.5,0h0.5h1c1,0,1.6-0.5,2.6-0.5l0,0
	c1,0,1-0.5,2.1-0.5h3.1c1,0,1.6-0.5,2.6-0.5h1.6h0.5c1.6-1,1-0.5,2.1-2.6v-0.5v-1.6c0-1.6-1-3.1-1.6-4.2v-0.5v-1.6
	c-0.5-2.1-0.5-2.6-1.6-4.2v-0.5c0-1.6-1-2.1-1.6-3.7c-0.5-2.1-0.5-2.1-2.6-3.1c-0.5,0.5-0.5,0.5-0.5,1v0.5c0,1.6,1,2.1,1.6,4.7
	l0.5,5.2c0,1,0,1,0,1.6c0,0.5,0,0,0,0.5v0.5c-1,0.5-1,1.6-2.6,1.6h-1.6c-1.6,0-2.6,0.5-3.7,0.5c-1,0-1,0.5-2.1,0.5
	c-1.6,0-3.1,1-4.7,1l0,0c-0.5,0,0,0-0.5,0h-0.5l-1-0.5c0-1-0.5-0.5-0.5-1v1.6c0-1.6,0.5-2.6,0.5-4.2c0-0.5,0.5-1,0.5-2.1
	c0-1,0-1,0-2.1v-0.5c0-1-0.5-1.6-0.5-2.6v-1.6h1c0.5,0.5,1,1,1.6,2.1l2.1,0.5c0.5,0,0.5,0,1,0h0.5l1-1v-0.5V393v-0.5
	c-0.5-1.6-3.7-2.1-3.7-3.1s2.6-3.7,3.7-4.7c0.5-0.5,3.1-4.2,4.2-4.2c0-1.6,1.6-1.6,1.6-2.6v-0.5v-0.5c-0.5-1-2.1-1.6-3.7-2.6h-0.5
	h-0.5h-0.5L346.2,375.2z M312.1,405.1c0.5-2.1,1-1,2.6-2.6c0.5-0.5,0-0.5,0.5-0.5l0.5-0.5c0.5-0.5,0.5-1,1-1c0.5,0,0,0,0.5,0v0.5
	c0,1.6-1.6,1.6-2.6,2.1C314.7,404.1,313.7,405.1,312.1,405.1L312.1,405.1z M323.7,397.2l1-1.6l0.5,1.6l-0.5,1l-1-0.5V397.2
	L323.7,397.2z M326.3,385.2c0-0.5,0-1,0.5-1h0.5v0.5L326.3,385.2L326.3,385.2z M326.3,380.4l0.5-1v-0.5v-0.5c-0.5-1-1-1.6-1-3.1
	v-0.5l-1.6-1.6h-1l-1.6,1.6v1c0,2.1-0.5,1.6-1,2.6c-1,1-1,0.5-1.6,2.1c0.5,0.5,0,1,0.5,1.6c0.5,0.5,0.5,0.5,1,1v1
	c-1.6,1-3.1,2.6-5.2,3.7h-0.5h-2.1c-0.5,0-1.6,2.6-2.1,3.1v0.5v0.5v0.5c0.5,1,0.5,2.1,2.1,2.1c1,0,2.1-1.6,2.6-2.1s2.1-1.6,2.1-2.6
	c1,0,0.5,0,1,0.5c-0.5,0.5-0.5,1-1.6,1v0.5l-0.5,0.5v0.5l0,0l0.5,1v0.5l0,0v0.5c-0.5,1-2.6,2.1-3.1,3.1c-0.5,0.5-1,1-1.6,1.6l-1,0.5
	l-0.5,1c-1.6,2.1-5.8,4.2-5.8,6.8c0,2.1,1,2.1,1.6,3.1h0.5h0.5h0.5c1-0.5,2.6-1.6,4.2-2.1c1.6-1,2.1-2.1,4.2-2.1v0.5
	c-0.5,1.6-0.5,1-1,2.1v0.5c0,2.1-1.6,2.1-1.6,3.7v0.5v0.5l1.6,2.6c0,1,1.6,2.6,2.6,3.1h0.5c1,0,1.6-1,1.6-2.1c0.5-1,0.5-1.6,1-2.1
	v-1.6v-1.6c0-1,0.5-2.1,0.5-3.7c0-0.5,0.5-3.7,1-4.2c0.5-1,1.6-2.1,2.1-3.1h0.5c1.6,0,3.7-2.1,3.7-4.2v-1.6v-0.5l-1.6-2.6
	c0-0.5,0.5-1,1-1.6c0.5-0.5,0.5-1,0.5-1.6c-0.5-1-1.6-1-1.6-1.6c0-1,3.7-4.2,3.7-5.8v-1v-0.5c-0.5-1.6-0.5-1-2.1-2.1h-0.5h-2.6
	L326.3,380.4"/>
<path class="st3" d="M262.3,355.8v1c0,1,2.1,2.1,2.1,2.6v1c0,0-1,1.6-1,2.6c0,0.5-0.5,2.1-1.6,2.1v0.5c-0.5,0.5-1.6,2.6-1.6,3.1
	c-0.5,0.5-1,1.6-1.6,2.1c-0.5,1-1,1-1.6,2.1c-0.5,1-1,1-1.6,2.1c-0.5,1-1,1.6-1.6,2.1c-0.5,1.6-5.8,7.9-5.8,8.4l0,0v0.5
	c0,0.5,0.5,1,1,1c3.1,0,4.7-6.3,6.3-6.8c0-1,1-2.1,1.6-2.1v-0.5c1-0.5,1-1.6,2.1-2.6c0.5-0.5,1-2.6,2.1-3.1c0-0.5,3.1-5.2,3.7-5.8
	l2.6-2.1c1-0.5,0.5,0,1.6-1c1-1,0.5-0.5,1-1.6V361v-1.6v-0.5c-0.5-1-1.6-2.1-2.6-3.1c-1-0.5-3.1-1.6-4.2-1.6h-0.5
	C262.8,355.3,262.8,355.3,262.3,355.8 M254.9,384.6L254.9,384.6c0,1,1,1,1.6,1.6h0.5c1,0,2.6-1.6,3.7-1.6v0.5c0,0.5-0.5,0.5-0.5,1
	l0,0c0,0.5,1,2.1,1.6,2.1c0.5,0.5,1.6,1,2.6,1c0.5,0,0.5,0,1,0c0.5,0,1-0.5,1-1l1-0.5l0.5-1l-1-2.1h-1c0-0.5,0,0-0.5-0.5v0.5v-0.5
	c0.5-1,1.6-1.6,2.1-2.6c1-1,1-1.6,2.1-2.6v-0.5v-1.6c0-1-1.6-2.1-2.6-2.1h0.5c-1,0.5-2.1,1-3.7,2.1c-0.5,0.5-0.5,0.5-1.6,1
	c-0.5,0.5-1,1-1.6,1c-1,0.5-2.1,1.6-3.1,2.6C257,382.5,254.9,384.1,254.9,384.6 M271.7,393v1.6c0,0.5,0.5,0.5,1,1h0.5l0,0h0.5
	c0.5-0.5,1.6-1.6,1.6-2.6c0-0.5-0.5-1.6-1-1.6h-0.5C272.8,392,272.8,392.5,271.7,393 M261.8,392.5L261.8,392.5h-0.5
	c-0.5,0-1,0.5-1,1v1l0.5,0.5h1.6h0.5l0.5,0.5c0,1-1,1-1,1.6c-0.5,0.5-0.5,1.6-1,2.1v0.5v0.5l0.5,1.6c0.5,0,1.6,1.6,2.1,1.6l2.6-1
	c1-0.5,1-1,1.6-2.1l0,0c0-1,1.6-2.6,1.6-4.2c0-1,0.5-2.1,1-2.6V393l0,0v-0.5c-0.5-1-1.6-1.6-2.6-1.6h-0.5H267L261.8,392.5z
	 M258.1,400.9v-1v-0.5l-1-2.6l-0.5-0.5v-0.5c-0.5-0.5-0.5-0.5-0.5-1.6v-0.5V393c-0.5-0.5-0.5-1-1-1.6h-0.5h-0.5h-0.5l-0.5,1v0.5v1
	c0,0.5,0,0.5,0,1l-0.5,2.1c0,0.5-1.6,2.1-1.6,4.2c0,2.1,0.5,2.6,1,4.2c0.5,1.6,1,1.6,2.6,2.6h0.5h0.5c0.5-0.5,2.1-1,2.1-2.1
	c0-1,0.5-1.6,0.5-2.6V402c0-0.5,0,0,0-0.5C258.1,400.9,258.1,401.4,258.1,400.9 M283.3,388.3c0-1.6,1.6-3.1,2.6-3.7
	c1-1,2.1-2.1,4.2-2.1l0.5,0.5v0.5c0,0.5-1,1-1.6,2.1c-0.5,0.5-0.5,0.5-1,1c-0.5,0.5,0,0.5-0.5,1s-2.6,3.1-3.7,3.7c-1-0.5-0.5,0-1-1
	C283.3,389.9,283.3,388.8,283.3,388.3L283.3,388.3z M281.7,379.4c0.5-1,2.6-2.1,3.7-2.6l1-0.5c0.5,0,0.5,0,1-0.5s1-0.5,1.6-1
	c1-1,6.3-4.2,6.3-5.8c0-1-1-1.6-1.6-2.1h-0.5h-1.6h-1.6c-1.6,0-2.1,0.5-3.1,1l-3.1,1v0.5c-1.6,0-3.1,1.6-4.2,2.1
	c-1.6,0.5-2.6,2.1-3.7,2.1c0,0.5,0,0.5,0,1.6c0,0.5,0,0,0,0.5l1,0.5h0.5h0.5c1,0,1.6,0.5,2.1,1v0.5c0,1-0.5,1-1,1l-0.5,1.6v0.5
	c0,1,0.5,1.6,0.5,2.1c0.5,1,0,1,0,2.6v0.5c0,0.5-1,1.6-1.6,2.1c-1,1-1,1-1.6,2.1v0.5l0,0c0,0.5,0.5,0.5,1,1h0.5h0.5l0.5,0.5v0.5v0.5
	l-0.5,0.5v0.5l-0.5,4.2v4.2l-0.5,6.8l-0.5,4.2l-0.5,3.7c0,1,1.6,5.2,3.1,5.2c1,0,1-0.5,1.6-1v-0.5c0-1.6,1.6-2.6,1.6-5.8v-4.2v-3.7
	l0.5-6.8c0-0.5,0-0.5,0-0.5c0-0.5,0-0.5,0-0.5v-1v-0.5l0.5-0.5h0.5h1h0.5c1.6-0.5,2.1-1.6,3.1-2.6c1-1,1.6-2.1,2.6-3.7
	c0.5-0.5,1-1,1.6-1.6l1.6-1.6c0.5-0.5,0.5-1,1-2.1c1-1,0.5-1,1-2.1c-0.5-3.1-1.6-2.6-4.7-2.6l0,0c-1,0-1.6,0.5-2.6,0.5l-1.6,1h-0.5
	h-0.5C283.3,381.5,282.2,380.4,281.7,379.4"/>
<path class="st3" d="M452.7,382.5c0.5,0,7.9-4.2,8.4-4.2h0.5h0.5h0.5c0,1.6-1,2.1-2.1,2.6c-1,0.5-2.1,1-3.1,1.6
	c-1,0.5-4.7,3.1-5.8,4.2c-1,0-2.6,1.6-3.7,2.1c-0.5,0.5-1,1-1.6,1c-0.5,0.5,0,0.5-1,0.5c-1,0.5,0,0-0.5,1c-1,1-2.6,1.6-3.1,2.6
	c-0.5,0.5-3.1,2.6-3.7,2.6h-1c0-1.6,1-1.6,1.6-2.1c0.5-0.5,1-1.6,1.6-2.1c1-1.6,2.1-2.6,3.7-4.2c1.6-1.6,2.1-2.6,3.7-3.7
	c0.5-0.5,1.6-1,2.1-1.6c0.5-0.5,0.5-0.5,1-0.5c0.5,0,0.5,0,1-0.5h1V382.5z M453.8,377.3c0.5-0.5,1.6-2.1,2.1-2.1h0.5l3.1,0.5
	c-0.5,1-4.7,2.6-6.3,3.1c0-1,0-0.5,0.5-1V377.3z M460.6,368.9l0.5,0.5v0.5l1,3.7v1h-0.5v-1c0-0.5-0.5-1-1-1c-0.5-0.5-0.5-0.5-1-1.6
	v-0.5C459,370,459.5,368.9,460.6,368.9 M455.3,368.4c0,1-0.5,2.1-1.6,2.1h-0.5l0.5-1.6L455.3,368.4z M449.6,367.9
	c0-1,1.6-1.6,2.6-1.6l0.5,0.5v0.5l0,0c0,0.5-2.1,2.6-2.6,2.6S449.6,368.9,449.6,367.9L449.6,367.9z M458.5,349.5L458,350
	c0,0.5,0.5,1,0.5,1.6v1v0.5c-0.5,1-1.6,3.1-2.1,4.2c-0.5,1-1,1-1,2.1c0,0.5-0.5,2.1-1.6,2.1l0,0h-0.5c-0.5-1-1.6-3.1-3.7-3.1
	c-0.5-1-2.6-1.6-3.7-2.1c-0.5-0.5-3.1-2.1-3.7-2.1l-1,1v0.5c0,0,2.6,4.2,3.1,4.7v0.5c0,1.6,1,4.2,1.6,5.2v0.5v2.1l0.5,2.1
	c0.5,0,0.5,0,0.5,0.5v0.5c0,0.5-1,1-1,2.6l0,0c0,1-1.6,2.1-2.1,2.1c-0.5-0.5-0.5,0-0.5-0.5l-0.5-1c0-0.5-0.5-1-1-1.6
	c-0.5-0.5-1.6-2.6-2.6-2.6h-0.5H438h-0.5c0,0.5,0,0.5,0,0.5c0,1.6,1,2.1,1.6,3.1v0.5v5.2c0,1,1.6,3.1,2.1,3.1c1,0,1-0.5,2.1-0.5
	c0-1,5.2-7.3,5.8-7.9c0-1,0.5-1.6,1-2.1c0.5-0.5,1-1.6,1.6-1.6l1,0.5v0.5v0.5v0.5c-0.5,0.5-1,1.6-1,2.1c-1,0.5-1.6,2.1-2.1,3.1
	c-0.5,0.5-0.5,1.6-1,1.6c-0.5,0.5-1,0.5-1.6,1c-1,1-2.1,1.6-3.1,2.6c-1.6,1-1.6,1.6-3.1,2.6c-1,1-1.6,1.6-2.6,2.6
	c-0.5,0.5-1,1-1.6,1.6c-0.5,0.5-1,0.5-1.6,1c-0.5,0.5-0.5,1-1,1.6c-1,1-0.5,0.5-1,1.6c-0.5,0.5-1,1-1.6,1.6c-0.5,0.5-0.5,1-1,1.6
	v0.5v0.5c0,1.6,1.6,3.7,2.6,4.2h0.5h1h0.5c3.7-1.6,3.1-3.1,5.8-5.2c0.5-0.5,1-1,1.6-1.6c0.5-0.5,1-1,1-1.6c1-0.5,1.6-2.1,2.6-2.6
	c0.5-0.5,1-0.5,1.6-1l1.6-1.6c0.5-0.5,1-0.5,1.6-1c1-0.5,1-0.5,1.6-1c1-1,2.1-1.6,3.1-2.1c0.5-0.5,3.1-2.1,3.1-2.1c1,0,1-0.5,2.1-1
	c0.5-0.5,1-0.5,1.6-1c1-0.5,3.1-1,4.2-1c1,0,2.6-1.6,3.1-2.1l3.7-2.1h0.5h2.6c0.5,0,1,1,1.6,1.6h1l1.6-1.6c0-2.1-1.6-2.1-2.6-3.1
	h-0.5h-0.5h-2.1c-0.5,0-1,1-1.6,1h-0.5l-0.5-0.5c0-1,2.6-7.9,3.1-8.4v-0.5c0-1.6,1.6-4.2,1.6-5.8c0-0.5,0.5-1,0.5-2.1
	c0.5-0.5,1-2.1,1-3.1l0,0l0.5-1v-0.5v-1.6l-1-1h-1.6h-0.5l-0.5,1c0,0.5,0,0.5,0,1c0,2.6-2.1,4.7-2.1,6.3l-1,2.6v0.5v0.5
	c-0.5,0.5-0.5,1-0.5,1.6c-1,0.5-2.1,4.2-2.1,5.8c-0.5,1.6-0.5,1.6-1,2.6c-0.5,1.6,0,1.6-1.6,2.1l-0.5-0.5l0.5-1.6c0.5-0.5,1-1,1-1.6
	l0.5-3.7v-2.1v-0.5c-0.5-1,0-1-1-1.6c-0.5-0.5-1-1-1.6-1h-0.5c-0.5,0-1.6,0-1.6-0.5V360c0.5-0.5,2.1-1.6,2.6-2.1c1-1,1.6-1,2.6-2.1
	c1-0.5,5.2-3.1,5.2-4.2c0-0.5-0.5-1-1-1c-0.5,0.5-1,0-1.6,0.5l-1.6,1c-1,0.5-2.1,1-3.1,2.1c-0.5,0.5-0.5,0.5-1,1c-1,0.5-0.5,0.5-1,1
	c-1,0.5-2.1,1-3.1,1.6c0-0.5,1.6-2.6,2.1-2.6c1-0.5,2.1-1,2.1-2.6c0-2.1-3.7-3.7-5.2-4.7H460l0,0C459,349.5,459,349.5,458.5,349.5
	 M450.1,409.3c1,0,6.3-2.1,7.3-2.1c1,0,1,0,1.6,1v0.5c0,0.5,0,0.5-0.5,0.5v1.6l-0.5,2.6v0.5c0,2.1,0.5,3.1,0.5,5.2
	c0,0.5-1.6,1-2.1,1h-2.1c-1,0-1.6-0.5-2.6-0.5h-2.1H449c-1.6-0.5-3.1-1-4.2-1.6c-0.5-0.5-1.6-0.5-2.1-1c-1.6-0.5-1,0-1.6-1.6v-0.5
	c1.6-0.5,4.7-2.1,5.2-3.1c1,0,1.6-1,2.1-1.6C449,409.8,449.6,410.3,450.1,409.3 M468.4,387.3c1,0,3.1-2.1,4.2-2.6
	c0.5-0.5,1.6-1,2.1-1.6c1-0.5,1-0.5,1.6-2.1c-0.5-0.5-0.5-1.6-1.6-1.6l-2.6,1.6c-0.5,0.5-0.5,0.5-1.6,0.5c-0.5,0-0.5,0.5-1,1
	c-1,0.5-4.7,2.6-4.7,3.7c-1,0-1,0.5-1.6,1c-0.5,0.5-1,0.5-1.6,1c-1,0.5-1.6,1.6-3.7,1.6h-0.5c-1.6,1-2.1,0.5-3.1,2.6v0.5l0,0v0.5
	l1,1.6h0.5c0.5,0,0.5,0,1,0l1.6-0.5c0.5,0,1.6,0.5,1.6,1v2.1c0,1,0,2.6-1.6,2.6l-2.6,1c-0.5,0-1.6,0.5-2.1,0.5s0,0.5-1,0.5
	c0,0.5-1.6,1-2.1,1h-0.5l0,0l-1.6,1c-1,0-1.6,0.5-2.1,1h-0.5c0,0.5-1,0.5-2.1,1c-1,0.5-1,0.5-2.1,1c-1,0.5-3.1,2.1-3.7,2.1
	c0,0.5-1,0.5-1.6,1.6c-0.5,0.5-1,1-1.6,1.6v0.5l0,0v0.5c0.5,1,2.1,2.1,3.1,2.1c1,1,4.7,3.7,6.3,4.2c2.1,0.5,5.2,3.1,7.3,3.1
	c1.6,0,3.1,1.6,5.2,1.6c0.5,1,2.1,1.6,3.7,1.6h0.5h0.5c2.1-1,2.1-2.1,2.6-4.2c0-0.5-1-3.1-1-3.7v-3.7l0,0c0-1-0.5-1.6-0.5-2.1
	c0-0.5,0-1.6,0-2.6v-3.7c0-1,1.6-1.6,2.6-1.6h0.5h6.3h0.5c2.1-1,1.6-1,2.1-3.1c-0.5-1-1-2.1-2.1-2.6c-0.5-0.5-1-0.5-1.6-0.5
	c-0.5-0.5-0.5-0.5-1.6-1H469c-1,0-1.6,0.5-2.1,1c-0.5,0.5-1.6,0.5-2.1,1h-0.5h-1l-1-1v-0.5v-0.5c0.5-0.5,1.6-3.1,2.1-3.7
	c0-0.5-1-2.6-1.6-3.1C464.8,389.9,467.9,388.8,468.4,387.3"/>
<path class="st3" d="M404.4,360l-1-2.1c-0.5-0.5-1-1-1.6-1.6c-0.5-0.5-2.6-2.6-3.7-2.6l-1,0.5c0,0.5-0.5,0.5-0.5,1l0.5,1.6v0.5v2.6
	l-0.5,5.8v10.5c0,1-0.5,2.6-0.5,4.2c0,1.6,0.5,1,0,2.6c0,1-0.5,1.6-0.5,2.6v1v0.5c-1,1.6-0.5,1-2.1,2.1c-0.5,0.5-2.1,1-2.6,1
	c0,0-2.6,1.6-4.2,1.6c-0.5,0.5-1.6,1-2.6,1c-0.5,0-2.6,1-3.1,1.6c-1,0-2.6,1-3.1,1l-1.6-0.5h-0.5h-0.5c-0.5,0.5-1.6,0.5-1.6,1.6v1.6
	l1.6,2.1c0.5,0.5,1,1,2.6,1c0.5,0,1-0.5,1.6-0.5c0.5-1,4.7-2.6,5.8-3.7c2.1,0,4.7-2.1,6.8-2.1h0.5c0.5,0,0.5,0,0.5,0.5v0.5
	c-0.5,1-1.6,2.1-2.1,3.1c-0.5,1-1,2.6-1.6,3.1c0,1-1,3.1-1.6,3.7c-0.5,1-1.6,1.6-2.6,2.6c-0.5,0.5-2.1,2.1-2.6,2.1
	c-0.5,0.5-3.1,1.6-3.1,1.6l-3.1,0.5c-0.5,0-1.6-0.5-2.6-0.5l-1,0.5v0.5v1c0,1.6,3.1,2.6,4.7,2.6h1c1,0,1.6-0.5,2.1-0.5
	c1-0.5,0.5-0.5,1.6-0.5c0.5,0,3.1-1,3.7-1.6h0.5c1-1.6,1-0.5,2.1-1.6l1.6-2.1c0.5-0.5,1-1.6,1.6-2.1c1-1,1-0.5,1.6-1.6
	c0.5-1,1-1,1-2.1c0.5-1,0.5-1,1-2.1c0-0.5,0.5-2.1,0.5-2.6s1-1.6,1-2.1l0.5-2.6v-0.5c0.5-1,1.6-2.1,2.6-2.6c0.5-0.5,2.6-1.6,3.1-2.1
	h0.5l1.6-1h0.5c1,0,2.1-0.5,3.1-0.5c0.5,0,1.6-1,2.1-1c1,0,1-0.5,2.1-1c1-0.5,1-1,1.6-1.6c1-1,0.5-0.5,1-2.1c-0.5-1,0-1.6-1.6-2.1
	c-0.5,0-1.6-0.5-2.6-0.5l-2.1-1.6c-0.5-0.5-1-1-1.6-1h-0.5l0,0c-0.5,0-0.5,0.5-0.5,1.6c0.5,1.6,1,2.1,2.1,3.7v0.5
	c0,1.6-3.7,2.6-4.2,3.1h-0.5c-0.5,0.5-2.1,1.6-3.1,1.6c-0.5,1-0.5,0.5-1,0.5l-0.5-0.5v-0.5c0-1,0-1.6,0.5-2.1c0-1,0.5-2.1,0.5-3.1
	l0,0c0-0.5,1.6-6.3,1.6-7.3c0.5-1,0.5-2.1,1-3.1c0.5-1,1.6-1.6,1-3.1v-4.7v-0.5L404.4,360z M402.9,397.8l-1.6-1.6
	c-0.5-0.5-1-1-2.1-1v0.5v0.5v0.5c0,0.5,1.6,2.6,2.1,3.7c0.5,1,1,3.1,1.6,3.7c0,2.1,2.1,4.2,2.1,6.8v0.5c0.5,1,1.6,2.6,2.1,3.7
	c1,1.6,1.6,1.6,3.1,2.6h0.5h1.6h0.5l1-0.5c1,0,3.7-2.1,4.2-3.1c1-0.5,4.2-2.1,4.2-3.7l0,0c0-0.5-1-1-1.6-1l-2.6,0.5
	c-1,0-3.1-1.6-4.7-1.6l-2.1-1.6c-1-0.5-1-1-1.6-1.6c-1.6-1-2.1-2.1-3.7-3.1C405.5,399.9,403.9,398.8,402.9,397.8"/>
<path class="st3" d="M183.1,365.2c2.6,0,4.7,0.5,5.2,3.1c1,4.2-10,20.5-12.1,24.1c-1,1-1.6,2.1-2.6,3.1c-1.6,3.1-2.6,6.8-4.2,10
	c-1,2.1-0.5,4.7-2.6,6.3c-2.1,1.6-5.8,2.1-8.4,0.5c-0.5-0.5-1-1.6-1.6-2.1c-0.5-0.5-1-1-1-1.6c2.1-0.5,4.7-1.6,5.8-3.1
	c1-1.6,2.1-3.1,3.1-5.2c3.7-5.8,6.3-12.1,9.4-18.4c2.1-4.2,5.8-7.9,7.3-12.1c0-0.5,0-1-0.5-1.6c-3.1-2.1-13.6,2.1-16.8,3.7
	c-2.1,1.6-4.7,2.6-6.8,4.2c-3.1,1.6-6.3,2.6-10,4.2c-2.6,0.5-5.8,0-8.4,0v-0.5h0.5v-0.5c3.7-2.1,6.8-4.2,10.5-6.8
	c2.6-1,5.2-2.1,7.3-2.6c5.2-2.1,11-4.2,17.3-4.2c1,0,2.1,0,3.1-0.5C180.5,365.8,182,365.8,183.1,365.2 M156.3,379.9
	c1,0.5,1.6,1,2.6,1.6c1,1-2.1,6.3-2.1,8.4c0.5,2.6,3.7,2.1,4.2,3.7c1,3.1-4.2,5.8-6.8,5.2c-7.9-0.5-1-10,0-13.1
	C154.7,383.6,155.3,381.5,156.3,379.9 M113.8,386.2c9.4,2.1,24.1,24.1,10.5,28.3c-6.3,2.1-8.9-4.7-8.9-10c0.5-2.1,0.5-4.2,1-6.3
	c0-3.7-1-6.3-2.1-9.4c0-0.5-1.6-2.1-0.5-2.1V386.2z M139.5,386.7c1,0.5,2.1,1,2.6,1.6c2.6,3.7,1.6,15.7-5.2,15.2
	c-1,0-1.6-0.5-2.6-1.6c-2.1-3.1,0.5-6.3,1.6-9.4c0.5-1.6,1-3.7,1.6-5.2h0.5C138.5,387.3,139,387.3,139.5,386.7L139.5,386.7z
	 M151.6,403.5c1,0,2.6,0.5,3.1,1c4.2,4.2-12.6,8.9-15.7,9.4c-1,0-4.2-1-3.1-1c2.1-0.5,4.2-1.6,6.3-2.1
	C145.8,408.8,148.5,405.6,151.6,403.5"/>
<path class="st3" d="M231.3,354.7c2.6,0,6.8,1,7.9,3.7c0.5,2.1-2.1,12.6-2.6,14.7c0,1,0,2.1,0,3.1c-0.5,3.1-1,6.8-1.6,10.5
	c-0.5,1.6-1,3.1-1.6,4.7c0,1.6,0,3.1,0,4.7c-0.5,1.6-0.5,3.1-1,5.2c-0.5,2.1,0,5.8,0.5,7.9c0.5,1.6,1,3.7,1,5.8
	c0,2.1-4.2,5.8-4.2,5.8c-1.6-0.5-3.1-0.5-3.1-2.6c-0.5-2.6,1-9.4,1-12.6c0.5-5.8,0.5-11.5,1-16.8c1-7.9,2.6-16.3,3.1-24.1
	c0-1.6,0-4.2-0.5-5.8c-0.5-1-2.1-2.1-2.1-3.7C230.3,355.3,230.8,354.7,231.3,354.7 M211.4,381c1,0,2.6,0,3.1,0.5
	c3.7,3.1,7.9,21,0,22c-4.2,0.5-6.3-3.1-5.2-6.3c0.5-1.6,1.6-3.1,2.1-4.2c0.5-2.1,1-4.2,1.6-6.3C212.5,384.1,211.9,382.5,211.4,381
	 M197.8,388.3c1.6,1.6,1,4.2,1.6,6.3c0.5,1.6,1.6,1.6,2.6,2.6c1,1.6,0.5,6.3,0.5,8.4c-0.5,1.6-2.6,3.7-2.6,3.7c-0.5,0-1,0-1-0.5
	c-2.6-1-5.2-5.2-4.7-7.9c0.5-1.6,1.6-3.7,2.1-5.2C196.2,393,196.7,390.4,197.8,388.3"/>
</svg>
